<mxfile host="app.diagrams.net" modified="2023-06-02T17:47:41.088Z" agent="Mozilla/5.0 (Windows NT 10.0; Win64; x64) AppleWebKit/537.36 (KHTML, like Gecko) Chrome/113.0.0.0 Safari/537.36" etag="P9eOVxoupz3w-IA9qe6i" version="21.3.6" type="device">
  <diagram id="C5RBs43oDa-KdzZeNtuy" name="Page-1">
    <mxGraphModel dx="1434" dy="796" grid="1" gridSize="10" guides="1" tooltips="1" connect="1" arrows="1" fold="1" page="1" pageScale="1" pageWidth="827" pageHeight="1169" math="0" shadow="0">
      <root>
        <mxCell id="WIyWlLk6GJQsqaUBKTNV-0" />
        <mxCell id="WIyWlLk6GJQsqaUBKTNV-1" parent="WIyWlLk6GJQsqaUBKTNV-0" />
        <mxCell id="EvbpFQZGKrK5PHOSlc3R-2" style="edgeStyle=orthogonalEdgeStyle;rounded=0;orthogonalLoop=1;jettySize=auto;html=1;entryX=0.5;entryY=0;entryDx=0;entryDy=0;" edge="1" parent="WIyWlLk6GJQsqaUBKTNV-1" source="6NkFYBZcf6LsaVMh4ESc-0" target="6NkFYBZcf6LsaVMh4ESc-1">
          <mxGeometry relative="1" as="geometry" />
        </mxCell>
        <mxCell id="6NkFYBZcf6LsaVMh4ESc-0" value="INICIO" style="ellipse;whiteSpace=wrap;html=1;" parent="WIyWlLk6GJQsqaUBKTNV-1" vertex="1">
          <mxGeometry x="370" y="40" width="120" height="80" as="geometry" />
        </mxCell>
        <mxCell id="EvbpFQZGKrK5PHOSlc3R-3" style="edgeStyle=orthogonalEdgeStyle;rounded=0;orthogonalLoop=1;jettySize=auto;html=1;entryX=0.5;entryY=0;entryDx=0;entryDy=0;" edge="1" parent="WIyWlLk6GJQsqaUBKTNV-1" source="6NkFYBZcf6LsaVMh4ESc-1" target="EvbpFQZGKrK5PHOSlc3R-0">
          <mxGeometry relative="1" as="geometry" />
        </mxCell>
        <mxCell id="6NkFYBZcf6LsaVMh4ESc-1" value="num(int)&lt;br&gt;suma_cant(int)&lt;br&gt;" style="rounded=0;whiteSpace=wrap;html=1;" parent="WIyWlLk6GJQsqaUBKTNV-1" vertex="1">
          <mxGeometry x="362" y="170" width="136" height="90" as="geometry" />
        </mxCell>
        <mxCell id="EvbpFQZGKrK5PHOSlc3R-5" style="edgeStyle=orthogonalEdgeStyle;rounded=0;orthogonalLoop=1;jettySize=auto;html=1;entryX=0.5;entryY=0;entryDx=0;entryDy=0;exitX=0.5;exitY=0.838;exitDx=0;exitDy=0;exitPerimeter=0;" edge="1" parent="WIyWlLk6GJQsqaUBKTNV-1" source="EvbpFQZGKrK5PHOSlc3R-0" target="EvbpFQZGKrK5PHOSlc3R-4">
          <mxGeometry relative="1" as="geometry" />
        </mxCell>
        <mxCell id="EvbpFQZGKrK5PHOSlc3R-0" value="&quot;Ingresa diez cantidades&quot;" style="shape=document;whiteSpace=wrap;html=1;boundedLbl=1;" vertex="1" parent="WIyWlLk6GJQsqaUBKTNV-1">
          <mxGeometry x="340" y="350" width="180" height="80" as="geometry" />
        </mxCell>
        <mxCell id="EvbpFQZGKrK5PHOSlc3R-7" style="edgeStyle=orthogonalEdgeStyle;rounded=0;orthogonalLoop=1;jettySize=auto;html=1;entryX=0.5;entryY=0;entryDx=0;entryDy=0;" edge="1" parent="WIyWlLk6GJQsqaUBKTNV-1" source="EvbpFQZGKrK5PHOSlc3R-4" target="EvbpFQZGKrK5PHOSlc3R-6">
          <mxGeometry relative="1" as="geometry" />
        </mxCell>
        <mxCell id="EvbpFQZGKrK5PHOSlc3R-4" value="i&amp;lt;-10" style="shape=parallelogram;perimeter=parallelogramPerimeter;whiteSpace=wrap;html=1;fixedSize=1;" vertex="1" parent="WIyWlLk6GJQsqaUBKTNV-1">
          <mxGeometry x="338" y="510" width="184" height="120" as="geometry" />
        </mxCell>
        <mxCell id="EvbpFQZGKrK5PHOSlc3R-9" style="edgeStyle=orthogonalEdgeStyle;rounded=0;orthogonalLoop=1;jettySize=auto;html=1;entryX=0.563;entryY=0.033;entryDx=0;entryDy=0;entryPerimeter=0;" edge="1" parent="WIyWlLk6GJQsqaUBKTNV-1" source="EvbpFQZGKrK5PHOSlc3R-6" target="EvbpFQZGKrK5PHOSlc3R-8">
          <mxGeometry relative="1" as="geometry" />
        </mxCell>
        <mxCell id="EvbpFQZGKrK5PHOSlc3R-6" value="&quot;Ingresa un nÃºmero&quot;" style="shape=document;whiteSpace=wrap;html=1;boundedLbl=1;" vertex="1" parent="WIyWlLk6GJQsqaUBKTNV-1">
          <mxGeometry x="351" y="690" width="158" height="130" as="geometry" />
        </mxCell>
        <mxCell id="EvbpFQZGKrK5PHOSlc3R-8" value="suma==suma+1" style="shape=parallelogram;perimeter=parallelogramPerimeter;whiteSpace=wrap;html=1;fixedSize=1;" vertex="1" parent="WIyWlLk6GJQsqaUBKTNV-1">
          <mxGeometry x="340" y="880" width="160" height="90" as="geometry" />
        </mxCell>
      </root>
    </mxGraphModel>
  </diagram>
</mxfile>
